PathFileType	4	(X/Y/Z)	/Users/itak/Documents/Research/Walk-IL/dataset/trc/00224_00009.trc
DataRate	CameraRate	NumFrames	NumMarkers	Units	OrigDataRate	OrigDataStartFrame	OrigNumFrames
100.000000	100.000000	4	53	mm	100.000000	463	530
Frame#	Time	RPSI			LPSI			L3			STRN			T10			C7			CLAV			RBAK			LBAK			LSHO			LUPA			LAEL			LAOL			LWTS			LWPS			LFRA			LIFD			LHPS			LHTS			RSHO			RUPA			RAEL			RAOL			RWTS			RWPS			RFRA			RIFD			RHTS			RHPS			RBHD			LFHD			RFHD			LBHD			LHIP			RHIP			RASI			LASI			LKNE			LTHI			LANK			LTIP			LTOE			LMT1			LMT5			LHEE			RKNE			RANK			RTIP			RTOE			RMT1			RMT5			RHEE			RTHI			
		X1	Y1	Z1	X2	Y2	Z2	X3	Y3	Z3	X4	Y4	Z4	X5	Y5	Z5	X6	Y6	Z6	X7	Y7	Z7	X8	Y8	Z8	X9	Y9	Z9	X10	Y10	Z10	X11	Y11	Z11	X12	Y12	Z12	X13	Y13	Z13	X14	Y14	Z14	X15	Y15	Z15	X16	Y16	Z16	X17	Y17	Z17	X18	Y18	Z18	X19	Y19	Z19	X20	Y20	Z20	X21	Y21	Z21	X22	Y22	Z22	X23	Y23	Z23	X24	Y24	Z24	X25	Y25	Z25	X26	Y26	Z26	X27	Y27	Z27	X28	Y28	Z28	X29	Y29	Z29	X30	Y30	Z30	X31	Y31	Z31	X32	Y32	Z32	X33	Y33	Z33	X34	Y34	Z34	X35	Y35	Z35	X36	Y36	Z36	X37	Y37	Z37	X38	Y38	Z38	X39	Y39	Z39	X40	Y40	Z40	X41	Y41	Z41	X42	Y42	Z42	X43	Y43	Z43	X44	Y44	Z44	X45	Y45	Z45	X46	Y46	Z46	X47	Y47	Z47	X48	Y48	Z48	X49	Y49	Z49	X50	Y50	Z50	X51	Y51	Z51	X52	Y52	Z52	X53	Y53	Z53	

464	4.63	809.9917602539062	1038.9921875	-31.6421012878418	799.0670166015625	1045.180419921875	87.86482238769531	806.1484985351562	1126.499267578125	42.51993560791016	557.0609741210938	1307.734130859375	26.17289733886719	812.4796752929688	1253.0166015625	32.10783004760742	745.2007446289062	1514.026733398438	23.81535530090332	581.8008422851562	1425.48388671875	22.38423347473145	827.835693359375	1375.01123046875	-42.64657592773438	762.1702880859375	1477.928588867188	137.3359222412109	671.4513549804688	1479.261352539062	191.765380859375	698.6546630859375	1362.7451171875	274.9114379882812	682.0570068359375	1153.48291015625	311.1953430175781	748.2532958984375	1132.298095703125	259.7218322753906	578.4403076171875	920.730712890625	275.0706787109375	611.77294921875	906.8999633789062	351.4645690917969	656.9496459960938	1048.052978515625	331.4112548828125	567.2431030273438	726.0744018554688	294.7336730957031	590.3110961914062	819.2392578125	353.6338806152344	540.8851928710938	822.7432250976562	305.5644836425781	692.3295288085938	1463.289794921875	-144.8919067382812	716.5850830078125	1397.02685546875	-209.7456512451172	745.5616455078125	1115.51171875	-236.6048431396484	772.4439086914062	1110.255737304688	-144.902587890625	605.1198120117188	902.4735107421875	-207.5227966308594	666.5165405273438	886.3478393554688	-264.2087097167969	721.7847290039062	1046.68798828125	-250.6541290283203	591.2266235351562	709.625244140625	-197.6161193847656	566.9879760742188	781.2286987304688	-224.9145355224609	626.8065185546875	778.8585205078125	-267.0649108886719	701.07763671875	1669.43359375	-32.46695327758789	497.3152465820312	1706.7265625	62.37252426147461	497.8457946777344	1703.654541015625	-38.67456436157227	655.6473388671875	1677.581665039062	100.1400451660156	688.2097778320312	984.2592163085938	220.0989837646484	720.6824951171875	1000.253234863281	-145.6809539794922	619.0623779296875	1042.670654296875	-116.0856246948242	592.2361450195312	1026.915771484375	164.2830657958984	643.693603515625	501.156005859375	176.3423767089844	649.6455688476562	645.4617309570312	203.1721496582031	761.7470703125	32.00276947021484	176.4457550048828	707.2035522460938	277.2372131347656	184.2774047851562	551.6219482421875	39.99685668945312	107.4457702636719	622.3909912109375	32.47941207885742	67.92877960205078	632.1734619140625	32.50228118896484	184.16015625	826.50439453125	37.74798965454102	127.1217498779297	651.0315551757812	510.4182739257812	-95.89335632324219	736.1925659179688	27.15384864807129	-46.99688720703125	643.4645385742188	390.0121154785156	-72.99730682373047	525.75439453125	52.103515625	-21.2186222076416	575.7376708984375	45.0019416809082	26.92047882080078	627.854248046875	33.19916534423828	-80.23191070556641	794.4995727539062	29.09847068786621	18.86950492858887	652.5604858398438	775.9151611328125	-150.1911163330078	
465	4.64	810.5738525390625	1038.950805664062	-31.18923950195312	799.5724487304688	1045.088134765625	88.31477355957031	806.7529907226562	1126.451904296875	42.94879913330078	557.7705078125	1307.842529296875	26.72954368591309	813.1383056640625	1252.96142578125	32.51355743408203	746.0201416015625	1513.987670898438	24.2711067199707	582.520751953125	1425.596923828125	22.9857349395752	828.5001220703125	1374.94384765625	-42.31949996948242	763.030517578125	1477.883422851562	137.7586059570312	672.4014282226562	1479.27392578125	192.2886352539062	699.623779296875	1362.692138671875	275.3562622070312	682.958251953125	1153.403564453125	311.4403076171875	749.0086059570312	1132.147216796875	259.878173828125	578.0733642578125	921.1736450195312	274.7624816894531	611.6214599609375	906.9808959960938	351.162109375	657.42431640625	1047.982421875	331.4847106933594	566.1173706054688	726.5193481445312	294.1292114257812	589.6583862304688	819.4548950195312	353.1422729492188	540.2233276367188	823.3745727539062	305.1627197265625	692.9157104492188	1463.39013671875	-144.4003601074219	716.9533081054688	1397.085083007812	-209.2880401611328	745.2297973632812	1115.501586914062	-236.3631744384766	772.4307250976562	1110.148315429688	-144.7335968017578	603.9856567382812	903.193603515625	-206.7478790283203	665.0133056640625	886.6875	-263.6221313476562	721.1459350585938	1046.764282226562	-250.3134765625	589.0589599609375	710.3583984375	-196.6997680664062	565.1109619140625	782.0909423828125	-223.9131774902344	624.7071533203125	779.382080078125	-266.28466796875	702.0450439453125	1669.423217773438	-32.02717208862305	498.3601379394531	1706.946411132812	62.89841079711914	498.8153381347656	1703.844360351562	-38.10606002807617	656.6348876953125	1677.669311523438	100.6350402832031	688.5999145507812	984.2035522460938	220.4562072753906	721.2542114257812	1000.280517578125	-145.3072357177734	619.8986206054688	1042.78369140625	-115.6876373291016	592.7366333007812	1026.877807617188	164.3838500976562	643.7637329101562	501.1428833007812	176.4533843994141	649.6915283203125	645.4337768554688	203.3282623291016	761.7412109375	31.97491836547852	176.4699096679688	707.3182983398438	277.199951171875	184.3638458251953	551.6094360351562	39.91889190673828	107.3918075561523	622.3983764648438	32.40749359130859	67.87229919433594	632.1651000976562	32.48405456542969	184.1534271240234	826.4937133789062	37.7357177734375	127.1565017700195	651.6683349609375	510.5050048828125	-95.58402252197266	736.1077270507812	27.26972007751465	-46.89047622680664	643.9442138671875	390.1119384765625	-72.67045593261719	525.3209838867188	51.17052841186523	-21.03826332092285	575.4767456054688	44.2425651550293	27.06529235839844	627.7677612304688	33.22260665893555	-80.15338897705078	794.3473510742188	29.16900825500488	19.05882453918457	653.1124267578125	775.9540405273438	-149.8141937255859	
466	4.65	811.087646484375	1038.913330078125	-30.8043098449707	800.0108642578125	1045.01806640625	88.69727325439453	807.279052734375	1126.398681640625	43.32539367675781	558.4354858398438	1307.9599609375	27.22934913635254	813.7490234375	1252.886840820312	32.88955688476562	746.8033447265625	1513.942626953125	24.73532676696777	583.2092895507812	1425.718383789062	23.54671478271484	829.1239624023438	1374.866577148438	-41.98250961303711	763.8162231445312	1477.827514648438	138.1929016113281	673.2564086914062	1479.268310546875	192.7956390380859	700.46240234375	1362.627319335938	275.7890319824219	683.7611083984375	1153.298583984375	311.6533813476562	749.7349243164062	1131.998291015625	260.0443420410156	577.7249755859375	921.5733642578125	274.3577880859375	611.4560546875	907.0087280273438	350.7735290527344	657.8406372070312	1047.878295898438	331.5126342773438	565.191650390625	726.9149169921875	293.3857727050781	589.0458984375	819.6015625	352.5305786132812	539.6426391601562	823.9219360351562	304.63330078125	693.5068969726562	1463.510620117188	-143.9198913574219	717.3379516601562	1397.161743164062	-208.8415374755859	744.88671875	1115.510375976562	-236.0894775390625	772.3317260742188	1110.043823242188	-144.5301666259766	602.8065795898438	903.8823852539062	-206.048583984375	663.54931640625	887.0464477539062	-263.0841064453125	720.501953125	1046.860717773438	-249.9684448242188	586.8781127929688	711.1087646484375	-195.9335784912109	563.2673950195312	782.9571533203125	-223.0587615966797	622.6770629882812	779.9342041015625	-265.6071166992188	702.96484375	1669.421752929688	-31.58222579956055	499.3455810546875	1707.144287109375	63.4130973815918	499.7322998046875	1704.019409179688	-37.5606803894043	657.5593872070312	1677.749633789062	101.1233673095703	688.922119140625	984.16162109375	220.7572784423828	721.7694702148438	1000.292236328125	-144.9671325683594	620.8106079101562	1042.857177734375	-115.2715072631836	593.08447265625	1026.862060546875	164.4936218261719	643.8516845703125	501.1331481933594	176.5592346191406	649.7483520507812	645.4185791015625	203.4794464111328	761.7332763671875	31.94996643066406	176.4882354736328	707.4273681640625	277.1767883300781	184.4475402832031	551.59375	39.8372688293457	107.3407592773438	622.3915405273438	32.34355163574219	67.82394409179688	632.1557006835938	32.46387481689453	184.1522216796875	826.4815673828125	37.72952270507812	127.1856994628906	652.2174072265625	510.5690002441406	-95.2593994140625	736.0298461914062	27.37997245788574	-46.78105163574219	644.3511352539062	390.1886596679688	-72.34759521484375	524.892333984375	50.18127059936523	-20.82796669006348	575.2130126953125	43.46542739868164	27.24346160888672	627.66845703125	33.25733947753906	-80.04563140869141	794.1967163085938	29.24050331115723	19.23533058166504	653.56787109375	775.9647827148438	-149.4273071289062	
467	4.66	811.5355834960938	1038.878173828125	-30.48044395446777	800.3890380859375	1044.967041015625	89.01924133300781	807.72900390625	1126.337768554688	43.65434646606445	559.0403442382812	1308.082275390625	27.66876602172852	814.3060913085938	1252.7919921875	33.23415374755859	747.5460205078125	1513.893676757812	25.2045841217041	583.8658447265625	1425.844116210938	24.06499290466309	829.7037353515625	1374.779296875	-41.63788986206055	764.5322265625	1477.754028320312	138.6363677978516	674.01904296875	1479.238159179688	193.2839660644531	701.1774291992188	1362.540893554688	276.2060852050781	684.4385986328125	1153.16015625	311.8373107910156	750.4216918945312	1131.845092773438	260.235107421875	577.433837890625	921.9165649414062	273.8642883300781	611.2775268554688	906.970703125	350.3067016601562	658.1901245117188	1047.7314453125	331.4996032714844	564.4760131835938	727.2462768554688	292.5064697265625	588.4724731445312	819.666748046875	351.8041381835938	539.135498046875	824.362060546875	303.9751892089844	694.0986938476562	1463.643676757812	-143.4472503662109	717.7442016601562	1397.253784179688	-208.406982421875	744.5408935546875	1115.534790039062	-235.7914581298828	772.1610717773438	1109.941284179688	-144.3027191162109	601.6021728515625	904.5452880859375	-205.4298400878906	662.133056640625	887.4141845703125	-262.5909423828125	719.8555908203125	1046.970825195312	-249.6261901855469	584.6993408203125	711.8726806640625	-195.2975921630859	561.4508666992188	783.8268432617188	-222.345703125	620.7200317382812	780.5037231445312	-265.02587890625	703.8346557617188	1669.422485351562	-31.11976623535156	500.2734069824219	1707.326049804688	63.91656494140625	500.6027526855469	1704.186157226562	-37.04193496704102	658.4191284179688	1677.818725585938	101.6070251464844	689.1885986328125	984.1300659179688	221.0091247558594	722.24755859375	1000.287475585938	-144.6508483886719	621.7676391601562	1042.892211914062	-114.8429641723633	593.3068237304688	1026.864990234375	164.6373443603516	643.9686279296875	501.1260986328125	176.6628570556641	649.833251953125	645.4136962890625	203.6288604736328	761.72412109375	31.92913436889648	176.5006103515625	707.5264892578125	277.1666870117188	184.5277862548828	551.5762329101562	39.75395202636719	107.2937088012695	622.3703002929688	32.2926139831543	67.78569793701172	632.1468505859375	32.4429931640625	184.1575775146484	826.4686279296875	37.72936630249023	127.2084274291992	652.6791381835938	510.6082763671875	-94.92526245117188	735.9577026367188	27.48612976074219	-46.67049789428711	644.6832885742188	390.2492065429688	-72.03510284423828	524.4800415039062	49.1652946472168	-20.59177780151367	574.9564208984375	42.70305633544922	27.4421558380127	627.5584716796875	33.30236434936523	-79.91282653808594	794.0484008789062	29.30929374694824	19.39274024963379	653.9299926757812	775.9391479492188	-149.0386810302734	
